<?xml version="1.0" encoding="UTF-8" standalone="no"?>
<svg
   width="24"
   height="60"
   viewBox="0 0 24 60"
   version="1.1"
   id="svg4"
   sodipodi:docname="briefcase.svg"
   inkscape:version="1.2.1 (9c6d41e410, 2022-07-14)"
   xmlns:inkscape="http://www.inkscape.org/namespaces/inkscape"
   xmlns:sodipodi="http://sodipodi.sourceforge.net/DTD/sodipodi-0.dtd"
   xmlns:xlink="http://www.w3.org/1999/xlink"
   xmlns="http://www.w3.org/2000/svg"
   xmlns:svg="http://www.w3.org/2000/svg">
  <defs
     id="defs8">
    <linearGradient
       inkscape:collect="always"
       id="linearGradient3382">
      <stop
         style="stop-color:#ffffff;stop-opacity:1"
         offset="0"
         id="stop3378" />
      <stop
         style="stop-color:#6effdc;stop-opacity:1"
         offset="1"
         id="stop3380" />
    </linearGradient>
    <linearGradient
       inkscape:collect="always"
       xlink:href="#linearGradient3382"
       id="linearGradient3384"
       x1="12"
       y1="34.980907"
       x2="12"
       y2="26.144608"
       gradientUnits="userSpaceOnUse" />
  </defs>
  <sodipodi:namedview
     id="namedview6"
     pagecolor="#ffffff"
     bordercolor="#000000"
     borderopacity="0.25"
     inkscape:showpageshadow="2"
     inkscape:pageopacity="0.0"
     inkscape:pagecheckerboard="0"
     inkscape:deskcolor="#d1d1d1"
     showgrid="false"
     inkscape:zoom="12.330175"
     inkscape:cx="-0.48661112"
     inkscape:cy="28.142343"
     inkscape:window-width="1920"
     inkscape:window-height="1017"
     inkscape:window-x="-8"
     inkscape:window-y="-8"
     inkscape:window-maximized="1"
     inkscape:current-layer="svg4" />
  <path
     d="m 17.2488,44.792793 h -1.9683 v -1.3122 c 0,-0.723678 -0.588522,-1.3122 -1.3122,-1.3122 h -3.9366 c -0.7236783,0 -1.3122,0.588522 -1.3122,1.3122 v 1.3122 H 6.7512 c -0.7236783,0 -1.3122,0.588522 -1.3122,1.3122 v 2.6244 h 3.2805 v -1.3122 h 1.3122 v 1.3122 h 3.9366 v -1.3122 h 1.3122 v 1.3122 h 3.2805 v -2.6244 c 0,-0.723678 -0.588522,-1.3122 -1.3122,-1.3122 z m -7.2171,-1.3122 h 3.9366 v 1.3122 h -3.9366 z m 5.2488,7.2171 h -1.3122 v -1.3122 h -3.9366 v 1.3122 H 8.7195 v -1.3122 H 5.439 v 3.9366 c 0,0.723678 0.5885217,1.3122 1.3122,1.3122 h 10.4976 c 0.723678,0 1.3122,-0.588522 1.3122,-1.3122 v -3.9366 h -3.2805 z"
     id="path2"
     style="fill:#555555;fill-opacity:1;stroke-width:0.999999" />
  <rect
     style="fill:url(#linearGradient3384);fill-opacity:1;fill-rule:evenodd;stroke-width:1"
     id="rect3316"
     width="24"
     height="8.8362999"
     x="0"
     y="26.144608" />
  <rect
     style="fill:#6effdc;fill-opacity:1;fill-rule:evenodd;stroke-width:1"
     id="rect4199"
     width="24"
     height="26.144608"
     x="0"
     y="1e-07" />
  <path
     d="m 17.2488,12.303107 h -1.9683 v -1.3122 c 0,-0.723678 -0.588522,-1.3121989 -1.3122,-1.3121989 h -3.9366 c -0.7236781,0 -1.3121998,0.5885209 -1.3121998,1.3121989 v 1.3122 H 6.7511998 c -0.7236783,0 -1.3122,0.588522 -1.3122,1.3122 v 2.6244 h 3.2805004 v -1.3122 H 10.0317 v 1.3122 h 3.9366 v -1.3122 h 1.3122 v 1.3122 h 3.2805 v -2.6244 c 0,-0.723678 -0.588522,-1.3122 -1.3122,-1.3122 z m -7.2171,-1.3122 h 3.9366 v 1.3122 h -3.9366 z m 5.2488,7.217101 h -1.3122 v -1.312201 h -3.9366 v 1.312201 H 8.7195002 V 16.895807 H 5.4389998 v 3.936601 c 0,0.723678 0.5885217,1.3122 1.3122,1.3122 H 17.2488 c 0.723678,0 1.3122,-0.588522 1.3122,-1.3122 v -3.936601 h -3.2805 z"
     id="path2-4"
     style="fill:#ffffff;fill-opacity:1;stroke-width:0.999999" />
</svg>
