<?xml version="1.0" encoding="UTF-8" standalone="no"?>
<svg
   width="15.999999"
   height="48"
   fill="currentColor"
   class="bi bi-github"
   viewBox="0 0 15.999999 48.000001"
   version="1.1"
   id="svg4"
   sodipodi:docname="github.svg"
   inkscape:version="1.2.1 (9c6d41e410, 2022-07-14)"
   xmlns:inkscape="http://www.inkscape.org/namespaces/inkscape"
   xmlns:sodipodi="http://sodipodi.sourceforge.net/DTD/sodipodi-0.dtd"
   xmlns:xlink="http://www.w3.org/1999/xlink"
   xmlns="http://www.w3.org/2000/svg"
   xmlns:svg="http://www.w3.org/2000/svg">
  <defs
     id="defs8">
    <linearGradient
       inkscape:collect="always"
       id="linearGradient407">
      <stop
         style="stop-color:#ffffff;stop-opacity:1"
         offset="0"
         id="stop403" />
      <stop
         style="stop-color:#000000;stop-opacity:1"
         offset="1"
         id="stop405" />
    </linearGradient>
    <linearGradient
       inkscape:collect="always"
       xlink:href="#linearGradient407"
       id="linearGradient409"
       x1="7.9999995"
       y1="26.540771"
       x2="7.9999995"
       y2="19.079401"
       gradientUnits="userSpaceOnUse" />
  </defs>
  <sodipodi:namedview
     id="namedview6"
     pagecolor="#ffffff"
     bordercolor="#000000"
     borderopacity="0.25"
     inkscape:showpageshadow="2"
     inkscape:pageopacity="0.0"
     inkscape:pagecheckerboard="0"
     inkscape:deskcolor="#d1d1d1"
     showgrid="false"
     inkscape:zoom="13.078125"
     inkscape:cx="-13.189964"
     inkscape:cy="19.192353"
     inkscape:window-width="1920"
     inkscape:window-height="1017"
     inkscape:window-x="-8"
     inkscape:window-y="-8"
     inkscape:window-maximized="1"
     inkscape:current-layer="svg4" />
  <path
     d="m 7.9999981,36.976077 c -3.094,0 -5.6,2.506 -5.6,5.6 0,2.478 1.603,4.571 3.829,5.313 0.28,0.049 0.385,-0.119 0.385,-0.266 0,-0.133 -0.007,-0.574 -0.007,-1.043 -1.407,0.259 -1.771,-0.343 -1.883,-0.658 -0.063,-0.161 -0.336,-0.658 -0.574,-0.791 -0.196,-0.105 -0.476,-0.364 -0.007,-0.371 0.441,-0.007 0.756,0.406 0.861,0.574 0.504,0.847 1.309,0.609 1.631,0.462 0.049,-0.364 0.196,-0.609 0.357,-0.749 -1.246,-0.14 -2.548,-0.623 -2.548,-2.765 0,-0.609 0.217,-1.113 0.574,-1.505 -0.056,-0.14 -0.252,-0.714 0.056,-1.484 0,0 0.469,-0.147 1.54,0.574 0.448,-0.126 0.924,-0.189 1.4,-0.189 0.476,0 0.952,0.063 1.4,0.189 1.0709999,-0.728 1.5399999,-0.574 1.5399999,-0.574 0.308,0.77 0.112,1.344 0.056,1.484 0.357,0.392 0.574,0.889 0.574,1.505 0,2.149 -1.309,2.625 -2.5549999,2.765 0.203,0.175 0.378,0.511 0.378,1.036 0,0.749 -0.007,1.351 -0.007,1.54 0,0.147 0.105,0.322 0.385,0.266 a 5.6084,5.6084 0 0 0 3.8149999,-5.313 c 0,-3.094 -2.506,-5.6 -5.5999999,-5.6 z"
     id="path2"
     style="fill:#555555;fill-opacity:1;stroke-width:0.999999" />
  <rect
     style="fill:url(#linearGradient409);fill-opacity:1;fill-rule:evenodd;stroke-width:1"
     id="rect341"
     width="15.999999"
     height="7.4613705"
     x="0"
     y="19.079401" />
  <rect
     style="display:inline;fill:#000000;fill-rule:evenodd;stroke-width:1"
     id="rect2736"
     width="15.999999"
     height="19.574863"
     x="0"
     y="-0.30585423" />
  <path
     d="m 7.9999991,5.773954 c -3.094,0 -5.6,2.5059999 -5.6,5.599998 0,2.477999 1.603,4.570999 3.829,5.312999 0.28,0.049 0.385,-0.119 0.385,-0.266 0,-0.133 -0.007,-0.574 -0.007,-1.043 -1.407,0.259 -1.771,-0.343 -1.883,-0.658 -0.063,-0.161 -0.336,-0.658 -0.574,-0.791 -0.196,-0.105 -0.476,-0.364 -0.007,-0.371 0.441,-0.007 0.756,0.406 0.861,0.574 0.504,0.847 1.309,0.609 1.631,0.462 0.049,-0.364 0.196,-0.609 0.357,-0.749 -1.246,-0.14 -2.548,-0.622999 -2.548,-2.764999 0,-0.609 0.217,-1.1129996 0.574,-1.5049981 -0.056,-0.14 -0.252,-0.714 0.056,-1.484 0,0 0.469,-0.147 1.54,0.574 0.448,-0.126 0.924,-0.189 1.4,-0.189 0.476,0 0.952,0.063 1.4,0.189 1.0709999,-0.728 1.5399999,-0.574 1.5399999,-0.574 0.308,0.77 0.112,1.344 0.056,1.484 0.357,0.3919985 0.574,0.8889981 0.574,1.5049981 0,2.149 -1.309,2.624999 -2.5549999,2.764999 0.203,0.175 0.378,0.511 0.378,1.036 0,0.749 -0.007,1.351 -0.007,1.54 0,0.147 0.105,0.322 0.385,0.266 a 5.6084,5.6084 0 0 0 3.8149999,-5.312999 c 0,-3.0939981 -2.506,-5.599998 -5.5999999,-5.599998 z"
     id="path2734"
     style="display:inline;fill:#ffffff;stroke-width:0.999999" />
</svg>
