<?xml version="1.0" encoding="UTF-8" standalone="no"?>
<svg
   width="16"
   height="50"
   fill="currentColor"
   class="bi bi-linkedin"
   viewBox="0 0 16 50"
   version="1.1"
   id="svg4"
   sodipodi:docname="linkedin.svg"
   inkscape:version="1.2.1 (9c6d41e410, 2022-07-14)"
   xmlns:inkscape="http://www.inkscape.org/namespaces/inkscape"
   xmlns:sodipodi="http://sodipodi.sourceforge.net/DTD/sodipodi-0.dtd"
   xmlns:xlink="http://www.w3.org/1999/xlink"
   xmlns="http://www.w3.org/2000/svg"
   xmlns:svg="http://www.w3.org/2000/svg">
  <defs
     id="defs8">
    <linearGradient
       inkscape:collect="always"
       id="linearGradient3456">
      <stop
         style="stop-color:#000000;stop-opacity:0"
         offset="0"
         id="stop3452" />
      <stop
         style="stop-color:#0077b5;stop-opacity:1"
         offset="1"
         id="stop3454" />
    </linearGradient>
    <linearGradient
       inkscape:collect="always"
       xlink:href="#linearGradient3456"
       id="linearGradient3458"
       x1="8"
       y1="30.332092"
       x2="8"
       y2="22.763611"
       gradientUnits="userSpaceOnUse" />
  </defs>
  <sodipodi:namedview
     id="namedview6"
     pagecolor="#ffffff"
     bordercolor="#000000"
     borderopacity="0.25"
     inkscape:showpageshadow="2"
     inkscape:pageopacity="0.0"
     inkscape:pagecheckerboard="0"
     inkscape:deskcolor="#d1d1d1"
     showgrid="false"
     inkscape:zoom="18.495262"
     inkscape:cx="-1.108392"
     inkscape:cy="19.085969"
     inkscape:window-width="1920"
     inkscape:window-height="1017"
     inkscape:window-x="-8"
     inkscape:window-y="-8"
     inkscape:window-maximized="1"
     inkscape:current-layer="svg4" />
  <path
     d="m 3.27608,38.502171 c 0,-0.37378 0.3105977,-0.676701 0.6938257,-0.676701 h 8.0601893 c 0.383227,0 0.693825,0.302921 0.693825,0.676701 v 8.094437 c 0,0.373781 -0.310598,0.676702 -0.693825,0.676702 H 3.9699057 c -0.383228,0 -0.6938257,-0.302921 -0.6938257,-0.676702 z m 2.9187921,7.232322 v -4.26629 H 4.7771056 v 4.26629 z m -0.708588,-4.849104 c 0.4942401,0 0.8018854,-0.327131 0.8018854,-0.736931 -0.00886,-0.418658 -0.3070548,-0.736932 -0.7924376,-0.736932 -0.4853828,0 -0.8024759,0.318865 -0.8024759,0.736932 0,0.4098 0.3076453,0.736931 0.7835802,0.736931 z m 2.8981249,4.849104 v -2.382627 c 0,-0.127546 0.00945,-0.255092 0.047239,-0.346027 0.1021548,-0.254502 0.3353983,-0.518451 0.7274837,-0.518451 0.5131363,0 0.7180363,0.390905 0.7180363,0.964861 v 2.282244 h 1.417766 v -2.446991 c 0,-1.310887 -0.69914,-1.920273 -1.632114,-1.920273 -0.7522844,0 -1.0894542,0.413343 -1.278411,0.704454 v 0.01476 h -0.00945 a 3.2713146,3.2713146 0 0 1 0.00945,-0.01476 v -0.60348 H 6.967233 c 0.017715,0.400352 0,4.26629 0,4.26629 z"
     id="path2"
     style="fill:#555555;fill-opacity:1;stroke-width:0.999999" />
  <rect
     style="fill:#0077b5;fill-opacity:1;fill-rule:evenodd;stroke-width:1"
     id="rect289"
     width="16"
     height="22.817678"
     x="0"
     y="-0.054067843" />
  <rect
     style="display:inline;fill:#ffffff;fill-rule:evenodd;stroke-width:0.999997"
     id="rect3387"
     width="7.5759211"
     height="8.0944366"
     x="4.2120395"
     y="10.010948" />
  <path
     d="m 3.27608,10.010948 c 0,-0.37378 0.310598,-0.676701 0.693826,-0.676701 h 8.060189 c 0.383227,0 0.693825,0.302921 0.693825,0.676701 v 8.094437 c 0,0.373781 -0.310598,0.676702 -0.693825,0.676702 H 3.969906 c -0.383228,0 -0.693826,-0.302921 -0.693826,-0.676702 z M 6.194872,17.24327 V 12.976981 H 4.777106 V 17.24327 Z M 5.486284,12.394167 c 0.49424,0 0.801886,-0.327131 0.801886,-0.736931 -0.0089,-0.418659 -0.307055,-0.736933 -0.792438,-0.736933 -0.485383,0 -0.802476,0.318865 -0.802476,0.736933 0,0.4098 0.307645,0.736931 0.78358,0.736931 z m 2.898125,4.849103 v -2.382627 c 0,-0.127545 0.0095,-0.255091 0.04724,-0.346027 0.102155,-0.254501 0.335398,-0.51845 0.727484,-0.51845 0.513136,0 0.718036,0.390905 0.718036,0.964861 v 2.282243 h 1.417766 v -2.44699 c 0,-1.310887 -0.69914,-1.920273 -1.632114,-1.920273 -0.752284,0 -1.089454,0.413343 -1.278411,0.704454 v 0.01476 h -0.0094 a 3.2713146,3.2713146 0 0 1 0.0094,-0.01476 v -0.60348 H 6.967233 c 0.01772,0.400352 0,4.266289 0,4.266289 z"
     id="path2-9"
     style="fill:#0077b5;fill-opacity:1;stroke-width:0.3;stroke:#ffffff;stroke-opacity:1;stroke-dasharray:none" />
  <rect
     style="fill:url(#linearGradient3458);fill-opacity:1;fill-rule:evenodd"
     id="rect3390"
     width="16"
     height="7.568481"
     x="0"
     y="22.763611" />
</svg>
