<?xml version="1.0" encoding="UTF-8" standalone="no"?>
<svg
   width="16"
   height="9.0012617"
   fill="currentColor"
   class="bi bi-skip-backward-fill"
   viewBox="0 0 16 9.0012617"
   version="1.1"
   id="svg4"
   sodipodi:docname="skip-backward-fill.svg"
   inkscape:version="1.2.1 (9c6d41e410, 2022-07-14)"
   xmlns:inkscape="http://www.inkscape.org/namespaces/inkscape"
   xmlns:sodipodi="http://sodipodi.sourceforge.net/DTD/sodipodi-0.dtd"
   xmlns="http://www.w3.org/2000/svg"
   xmlns:svg="http://www.w3.org/2000/svg">
  <defs
     id="defs8" />
  <sodipodi:namedview
     id="namedview6"
     pagecolor="#ffffff"
     bordercolor="#000000"
     borderopacity="0.25"
     inkscape:showpageshadow="2"
     inkscape:pageopacity="0.0"
     inkscape:pagecheckerboard="0"
     inkscape:deskcolor="#d1d1d1"
     showgrid="false"
     inkscape:zoom="26.15625"
     inkscape:cx="-1.5292712"
     inkscape:cy="0.7646356"
     inkscape:window-width="1920"
     inkscape:window-height="1017"
     inkscape:window-x="-8"
     inkscape:window-y="-8"
     inkscape:window-maximized="1"
     inkscape:current-layer="svg4" />
  <path
     d="M 0.5,3.4791734e-4 A 0.5,0.5 0 0 0 0,0.50034792 V 8.5003479 a 0.5,0.5 0 0 0 1,0 v -3.247 l 6.267,3.636 c 0.54,0.313 1.233,-0.066 1.233,-0.697 v -2.94 l 6.267,3.636 c 0.54,0.314 1.233,-0.065 1.233,-0.696 V 0.80834792 c 0,-0.63 -0.693,-1.01 -1.233,-0.696 L 8.5,3.7483479 V 0.80834792 c 0,-0.63 -0.692,-1.01 -1.233,-0.696 L 1,3.7483479 V 0.50034792 A 0.5,0.5 0 0 0 0.5,3.4791734e-4 Z"
     id="path2"
     style="fill:#d083cf;fill-opacity:1" />
</svg>
